<?xml version="1.0" encoding="iso-8859-1"?>
<!-- Generator: Adobe Illustrator 19.0.1, SVG Export Plug-In . SVG Version: 6.00 Build 0)  -->
<svg version="1.1" xmlns="http://www.w3.org/2000/svg" xmlns:xlink="http://www.w3.org/1999/xlink" x="0px" y="0px"
	 viewBox="0 0 128 128" style="enable-background:new 0 0 128 128;" xml:space="preserve">
<g id="_x35_">
	<path style="fill:#232323;" d="M111.001,82.058c-4.921-1.406-13.503-1.382-19.757,0.436c-12.727,3.709-21.114,13.309-18.739,21.454
		c2.376,8.145,14.618,11.757,27.345,8.048c11.709-3.394,19.757-11.854,19.03-19.563V0L47.973,16.387v80.216
		c-4.921-1.406-13.503-1.382-19.757,0.436c-12.727,3.709-21.114,13.309-18.739,21.454c2.376,8.145,14.618,11.757,27.345,8.048
		c11.709-3.394,19.757-11.854,19.03-19.563V34.423l55.15-13.284V82.058z"/>
</g>
<g id="Layer_1">
</g>
</svg>
